# xmcd CD database file
#
# Track frame offsets:
#	187
#	19932
#	43390
#	63125
#
# Disc length: 1152 seconds
#
# Revision: 1
# Processed by: cddbd v1.5PL3 Copyright (c) Steve Scherf et al.
# Submitted via: CDex 1.50beta9
#
DISCID=30047e04
DTITLE=SMAP - どんないいこと
DYEAR=1997
DGENRE=JPop
TTITLE0=どんないいこと
TTITLE1=泣いてごらん
TTITLE2=どんないいこと(カラオケ)
TTITLE3=泣いてごらん(カラオケ)
EXTD=YEAR: 1997
EXTT0=
EXTT1=
EXTT2=
EXTT3=
PLAYORDER=
